PathFileType	4	(X/Y/Z)	/home/filipkon/dev/OpenSimRT/data/gait1992/experimental_data/task_resampled.trc
DataRate	CameraRate	NumFrames	NumMarkers	Units	OrigDataRate	OrigDataStartFrame	OrigNumFrames
100	100	4	41	mm	100	188	251
Frame#	Time	R.ASIS			L.ASIS			V.Sacral			R.Thigh.Upper			R.Thigh.Front			R.Thigh.Rear			L.Thigh.Upper			L.Thigh.Front			L.Thigh.Rear			R.Shank.Upper			R.Shank.Front			R.Shank.Rear			L.Shank.Upper			L.Shank.Front			L.Shank.Rear			R.Heel			R.Midfoot.Sup			R.Midfoot.Lat			R.Toe.Tip			L.Heel			L.Midfoot.Sup			L.Midfoot.Lat			L.Toe.Tip			Sternum			R.Acromium			L.Acromium			R.Bicep			L.Bicep			R.Elbow			L.Elbow			R.Wrist.Med			R.Wrist.Lat			L.Wrist.Med			L.Wrist.Lat			R.Toe.Lat			R.Toe.Med			L.Toe.Lat			L.Toe.Med			R.Temple			L.Temple			Top.Head			
		X1	Y1	Z1	X2	Y2	Z2	X3	Y3	Z3	X4	Y4	Z4	X5	Y5	Z5	X6	Y6	Z6	X7	Y7	Z7	X8	Y8	Z8	X9	Y9	Z9	X10	Y10	Z10	X11	Y11	Z11	X12	Y12	Z12	X13	Y13	Z13	X14	Y14	Z14	X15	Y15	Z15	X16	Y16	Z16	X17	Y17	Z17	X18	Y18	Z18	X19	Y19	Z19	X20	Y20	Z20	X21	Y21	Z21	X22	Y22	Z22	X23	Y23	Z23	X24	Y24	Z24	X25	Y25	Z25	X26	Y26	Z26	X27	Y27	Z27	X28	Y28	Z28	X29	Y29	Z29	X30	Y30	Z30	X31	Y31	Z31	X32	Y32	Z32	X33	Y33	Z33	X34	Y34	Z34	X35	Y35	Z35	X36	Y36	Z36	X37	Y37	Z37	X38	Y38	Z38	X39	Y39	Z39	X40	Y40	Z40	X41	Y41	Z41	

189	1.88	604.661241875	1043.654964375	127.750706875	604.45256125	1029.615253125	-133.336111875	407.6850787500001	1036.20065	14.66235937500002	661.950176875	739.252541875	177.074348125	733.5521287500001	701.62815375	77.83604500000001	701.58494625	624.5313287500001	170.586980625	468.91998875	748.964790625	-177.274285625	551.142164375	686.739446875	-121.4710275	435.6828425	645.826165625	-158.4054425	703.124009375	445.281695	159.98326375	790.091899375	437.933421875	108.35535875	745.690255625	368.8820793749999	169.519531875	342.096771875	445.3720825	-150.852110625	370.722048125	381.3199025	-99.11249375000001	306.24298875	413.446645625	-156.14664625	786.1656718749999	57.82556375000001	92.10833562499998	918.241518125	114.2958831249999	64.71496374999998	913.85403375	94.28359687499994	170.5192525	1059.196675625	138.3559699999999	110.10781375	114.6609787499999	111.5374262500001	-53.52606625000001	282.1728349999998	82.55966062500002	-24.93223125000001	262.8886931249999	67.159791875	-119.244585	380.5325924999999	44.05539375	-46.895520625	633.76636125	1345.826803125	4.070955625000022	514.66310875	1430.473500625	206.004774375	582.2942762499999	1460.92043625	-205.835316875	493.21082875	1233.181649375	248.013260625	626.7034743749999	1227.911425	-234.56524125	432.9278312500001	1136.639968125	268.3409425	598.1935475	1124.146545625	-278.622765	552.4786743750001	894.6253812499999	276.986135	504.82514625	883.274706875	319.997255	778.8305181249999	969.25322625	-188.33939625	753.7062025	933.1595062499999	-249.651906875	1002.019054375	98.98719874999991	187.157808125	1010.179075	115.4514774999999	78.45457562499998	316.2883931249999	36.995341875	-124.698585625	337.7041324999999	46.74171749999999	-24.2931175	683.53279375	1587.484435625	93.39439500000003	700.8205525	1595.9805975	-43.94916999999997	652.937955	1762.257973125	33.42400750000003	
190	1.89	607.3460188235294	1043.065110588235	128.6966823529412	606.0805482352941	1029.116538823529	-132.1198135294117	409.8287488235295	1035.520212941176	16.53592117647062	665.5952588235294	739.7700782352941	177.6064470588235	738.0809041176472	702.9657152941177	78.94560411764708	705.0024452941177	624.4441964705882	169.9705394117647	470.0961447058824	748.7385558823529	-176.6826988235294	552.298861764706	686.14412	-121.1139088235294	436.7744905882353	645.5336864705882	-157.9801082352941	706.201555882353	445.6211905882353	158.8567870588235	791.7823652941177	436.2786952941176	106.8261611764706	746.6666364705882	368.502484117647	167.7512747058823	341.3808823529412	446.3900411764706	-150.9730417647059	368.4941547058823	380.9243017647058	-99.86342117647061	305.1351994117647	414.8570270588236	-156.4870588235294	777.638188235294	58.68579882352942	91.08966294117646	911.5303252941176	109.023518235294	63.17965235294115	906.5640405882352	89.92818235294111	168.9524664705882	1053.356356470588	127.7575058823528	107.9543229411764	106.607418235294	117.3111070588236	-54.41853352941178	272.9388717647057	83.64851411764708	-25.52791000000001	253.6054341176469	67.75886647058825	-120.1917494117647	368.800066470588	43.87276764705882	-46.90962117647059	634.9492011764706	1345.784574117647	6.20085235294121	515.6989729411765	1429.38195	208.7887811764706	582.8901576470588	1461.282687058824	-203.3375182352941	494.5614111764706	1231.721207647059	250.0016294117647	625.9877929411764	1227.991548235294	-232.527434117647	434.9625605882354	1135.029043529412	269.8827394117648	597.6650917647059	1124.662172941177	-276.6250635294117	555.5123005882353	893.4363511764706	278.2047829411765	507.6148847058824	881.8911494117647	321.0033541176471	775.6746064705882	965.1569158823529	-188.3405705882353	749.5829670588234	930.1370194117646	-250.2342276470588	995.5746488235293	90.82726647058811	185.4369458823529	1003.144907647059	106.087662352941	76.87824058823527	304.686938235294	36.6857	-124.5893835294118	327.2487311764704	46.20367470588234	-24.31859176470588	683.3030541176471	1587.625853529412	95.98782058823534	700.5039294117647	1596.169777058823	-41.63025588235291	652.1798505882354	1762.206737058824	35.53297529411768	
191	1.9	610.03516	1042.57324	129.6434	607.80206	1028.72498	-130.71559	412.0416900000001	1034.99036	18.41548000000004	669.1684	740.61969	178.3455	742.2697100000001	704.17328	80.30841000000002	707.79071	624.13812	169.41351	471.5370800000001	748.53265	-176.04604	553.88635	685.66632	-120.74895	438.11472	645.13721	-157.48712	709.4806500000001	446.0731200000001	157.89854	792.5950300000001	434.63446	105.64602	747.85876	368.69659	165.99821	341.2023	447.3829	-151.01653	366.51389	380.44019	-100.62478	304.46347	416.2639800000001	-156.821	769.0201999999998	59.63794000000003	90.26121000000001	904.5607899999998	103.8742299999999	61.80856999999998	899.1170699999998	85.70889999999991	167.55299	1047.26318	117.3813999999998	105.99777	99.00432999999985	123.3356600000002	-55.32401000000002	264.0585599999998	84.80372000000003	-26.07131000000001	244.7450399999998	68.46319000000003	-121.17912	357.3172899999998	43.71735	-46.88847999999999	635.82886	1345.73108	8.384970000000058	517.08752	1428.33545	211.6057400000001	583.38544	1461.82324	-200.7924299999999	495.7586700000001	1230.26929	252.0528	624.81714	1228.25256	-230.3138399999999	437.0835900000001	1133.56262	271.4432100000001	597.56708	1125.28552	-274.6018399999999	558.8342300000002	892.37671	279.3490300000001	510.4470200000001	880.62952	322.22226	772.4335299999999	960.9453099999998	-188.3524	745.4080199999999	927.11359	-251.04771	989.3461899999998	82.77298999999985	183.89014	995.9072899999998	96.99547999999983	75.46586999999997	293.2794499999998	36.37179999999999	-124.43866	317.0322899999998	45.64080999999999	-24.28938	683.20856	1587.86633	98.55325000000006	700.0462	1596.53613	-39.51794999999994	651.49518	1762.11389	37.42684000000007	
192	1.91	612.4316482352941	1043.23084	130.7443117647059	609.2330129411765	1029.036327058823	-129.6339429411765	414.3964252941177	1034.937942352941	20.30375058823532	671.4867294117647	740.7171664705883	179.5308529411765	746.2434982352942	706.123785882353	81.34067470588236	710.1167629411765	624.7061082352941	169.44211	474.0348917647059	748.2932147058824	-175.2813105882353	556.4228676470589	685.1302141176471	-120.8174852941176	440.6282552941177	644.7920394117647	-157.1050788235294	712.33365	447.3644611764706	157.7760047058824	796.0070064705883	434.5814482352941	104.1519376470588	749.1294070588235	369.1410547058824	165.7717923529412	342.6457470588235	447.8389588235294	-151.6663358823529	366.0497311764706	380.2424135294117	-100.8764858823529	305.5081935294118	417.67098	-157.2959764705882	759.9774117647057	60.78682823529414	90.01692176470588	896.7313429411763	99.39977705882346	60.91458176470587	891.0405347058822	82.07835294117641	166.7201429411764	1040.209527058823	108.0780176470587	104.665564117647	92.67748294117636	130.7152894117648	-56.39613352941178	255.8582658823528	86.39350823529415	-26.5883511764706	236.5088576470587	69.57467823529414	-122.0752552941177	346.2214958823528	43.63360882352941	-46.72502705882353	637.5760423529412	1346.356221176471	11.05198176470592	517.9676847058823	1427.917608823529	214.3460047058824	583.9132105882353	1462.336292941176	-197.7048182352941	497.9840464705883	1229.232407647059	254.1280352941177	625.7946694117647	1228.958412941176	-227.880434117647	439.6515723529412	1132.455584705882	273.1647217647059	596.3633917647059	1125.834696470588	-272.0361694117647	562.1257829411766	892.2108747058824	280.6839064705883	513.14822	879.5759788235293	323.3743894117648	768.2568947058824	956.8089570588235	-189.3415764705883	740.3275258823528	924.7214076470588	-252.1022570588235	980.792978235294	76.21590176470578	183.1819576470588	987.8677723529411	89.16652705882341	74.48389352941174	282.0800029411763	36.16787058823529	-124.1594835294118	307.0541194117645	45.15431588235293	-24.11516823529412	684.8723423529411	1588.888994705882	101.03975	700.8527294117647	1597.47593	-37.01590882352937	651.528174117647	1763.010531176471	40.5110752941177	
